<?xml version="1.0" encoding="utf-8"?>
<!-- Svg Vector Icons : http://www.onlinewebfonts.com/icon -->
<!DOCTYPE svg PUBLIC "-//W3C//DTD SVG 1.1//EN" "http://www.w3.org/Graphics/SVG/1.1/DTD/svg11.dtd">
<svg version="1.1" xmlns="http://www.w3.org/2000/svg" xmlns:xlink="http://www.w3.org/1999/xlink" x="0px" y="0px" viewBox="0 0 256 256" enable-background="new 0 0 256 256" xml:space="preserve">
<metadata> Svg Vector Icons : http://www.onlinewebfonts.com/icon </metadata>
<g><g><path fill="#000000" d="M228.3,246H27.7c-9.8,0-17.7-7.9-17.7-17.7V27.7C10,17.9,17.9,10,27.7,10h200.6c9.8,0,17.7,7.9,17.7,17.7v200.6C246,238.1,238.1,246,228.3,246z M240.1,33.6c0-9.8-7.9-17.7-17.7-17.7H33.6c-9.8,0-17.7,7.9-17.7,17.7v188.8c0,9.8,7.9,17.7,17.7,17.7h188.8c9.8,0,17.7-7.9,17.7-17.7V33.6z"/><path fill="#000000" d="M204.7,132.3c4.7-3.8,7.8-9.6,7.8-16.3c0-11.3-8.8-20.5-19.7-20.5s-19.7,9.2-19.7,20.5c0,6.7,3.1,12.5,7.8,16.3c-6.5,3-11.8,8.3-14.8,15c-4.8-5-10.5-9-16.9-11.8c8.5-6.5,14.1-16.6,14.1-28.1c0-19.6-15.8-35.4-35.4-35.4c-19.6,0-35.4,15.8-35.4,35.4c0,11.5,5.6,21.6,14.1,28.1c-6.4,2.8-12.1,6.9-16.9,11.8c-3-6.6-8.3-12-14.8-15c4.7-3.8,7.8-9.6,7.8-16.3c0-11.3-8.8-20.5-19.7-20.5c-10.9,0-19.7,9.2-19.7,20.5c0,6.7,3.1,12.5,7.8,16.3c-10.4,4.7-17.7,15.6-17.7,28.2h6.6c0-13.2,10.3-23.9,22.9-23.9c10.2,0,18.8,6.9,21.8,16.5c-6.3,8.7-10,19.4-10,31h11.8c0-22.8,18.5-41.3,41.3-41.3c22.8,0,41.3,18.5,41.3,41.3h11.8c0-11.6-3.7-22.3-10-31c3-9.6,11.6-16.5,21.8-16.5c12.7,0,22.9,10.7,22.9,23.9h6.6C222.4,147.9,215.1,137.1,204.7,132.3z M63.1,129.7c-7.2,0-13.1-6.1-13.1-13.7c0-7.5,5.9-13.7,13.1-13.7s13.1,6.1,13.1,13.7C76.2,123.6,70.3,129.7,63.1,129.7z M128,131c-13,0-23.6-10.6-23.6-23.6c0-13,10.6-23.6,23.6-23.6c13,0,23.6,10.6,23.6,23.6C151.6,120.4,141,131,128,131z M192.9,129.7c-7.2,0-13.1-6.1-13.1-13.7c0-7.5,5.9-13.7,13.1-13.7s13.1,6.1,13.1,13.7C206,123.6,200.1,129.7,192.9,129.7z"/></g></g>
</svg>