<?xml version="1.0" encoding="utf-8"?>
<!-- Svg Vector Icons : http://www.onlinewebfonts.com/icon -->
<!DOCTYPE svg PUBLIC "-//W3C//DTD SVG 1.1//EN" "http://www.w3.org/Graphics/SVG/1.1/DTD/svg11.dtd">
<svg version="1.1" xmlns="http://www.w3.org/2000/svg" xmlns:xlink="http://www.w3.org/1999/xlink" x="0px" y="0px" viewBox="0 0 256 256" enable-background="new 0 0 256 256" xml:space="preserve">
<metadata> Svg Vector Icons : http://www.onlinewebfonts.com/icon </metadata>
<g><g><path fill="#1450A3" d="M236.5,186.5c-27.3-0.1-54.7-0.1-82-0.1h-4.3c0.4,5.6,0.9,10.9,1.1,16.2c0.3,6.9,3.5,11.7,9.5,14.9c2.4,1.3,4.8,2.8,7.1,4.3c0.7,0.4,1.4,0.9,1.9,1.6c1.3,1.8,0.5,3.5-1.8,3.6c-3.5,0.1-7.1,0-10.6,0c-22.7,0-45.5,0-68.2,0c-1.3,0-3,0.4-3.5-1.4c-0.4-1.8,0.8-2.8,2.2-3.7c3-1.8,6.1-3.6,9.1-5.4c4.6-2.8,7.2-7,7.6-12.4c0.4-5.7,0.9-11.5,1.3-17.6h-3c-28,0-56.1,0-84.1,0c-6.1,0-8.8-2.7-8.8-8.9c0-43.4,0-96.6,0-140c0-5.5,2.8-8.5,8.3-8.5c72.7,0,145.5,0,218.2-0.1c4.5,0,7.7,1.4,9.5,5.6v146.3C244.2,185,241,186.5,236.5,186.5z M234.8,45.2H21.2v123.9h213.6V45.2z M35.8,132.9c0-2.7,0-5.5,0-8.3c0-2.1,0.9-3.2,3-3.2c3.1,0,6.3,0,9.4,0c2.1,0,3.1,1.1,3.1,3.1c0,5.7,0,11.3,0,17c0,2-1,3.1-3.1,3.1c-3.1,0-6.1,0-9.2,0c-2.3,0-3.2-0.9-3.2-3.3C35.8,138.5,35.8,135.7,35.8,132.9L35.8,132.9z M80.6,128.9c0-4,0-8,0-12c0-2.5,0.8-3.3,3.3-3.3c3,0,6,0,9,0c2.3,0,3.2,0.9,3.2,3.2c0,8.2,0,16.4,0,24.6c0,2-1,3.1-3.1,3.1c-3.1,0-6.1,0-9.2,0c-2.3,0-3.2-0.9-3.2-3.2C80.5,137.2,80.6,133.1,80.6,128.9z M73.7,125.2c0,5.3,0,10.6,0,15.9c0,2.7-0.8,3.4-3.4,3.5c-2.9,0-5.8,0-8.7,0c-2.4,0-3.3-0.8-3.3-3.1c0-10.8,0-21.6,0-32.5c0-2.3,0.9-3.1,3.3-3.1c3,0,6,0,9,0c2.3,0,3.2,0.9,3.2,3.2C73.7,114.5,73.7,119.9,73.7,125.2z M211.7,83c-9.7,7.2-19.2,14.4-29.1,21.8V67.4C191.4,66.6,206.5,74.6,211.7,83z M103,121.6c0-6.5,0-13.1,0-19.6c0-3.2,0.7-3.9,3.9-3.9c2.7,0,5.4,0,8.1,0c2.5,0,3.4,0.9,3.4,3.3c0,13.4,0,26.7,0,40.1c0,2.3-0.9,3.1-3.3,3.2c-3,0-6,0-9,0c-2.3,0-3.2-0.9-3.2-3.2C103,134.8,103,128.2,103,121.6L103,121.6z M88.1,97.1c7.2-8.2,14.3-16.3,21.9-24.8c-3.3,0-6,0-8.8,0c-1.8,0-3.3-0.5-3.4-2.5c-0.1-1.7,1.2-2.6,3.5-2.6c4.5,0,9.1,0,13.6,0c2.6,0,3.4,0.8,3.4,3.4c0,4.7,0,9.4,0,14c0,1.8-0.7,3.1-2.6,3.1c-1.9,0-2.6-1.3-2.6-3.1c0-2.5,0-5,0-8.1c-1.1,1.2-1.9,2-2.6,2.8c-6.5,7.4-13,14.8-19.5,22.1c-2,2.3-2.9,2.4-5.4,0.4C79.2,96.7,72.7,91.5,66,86.1c-0.6,0.6-1.3,1.1-1.9,1.6c-7.5,7.1-15,14.1-22.5,21.1c-0.6,0.5-1.1,1.1-1.7,1.5c-1.2,0.9-2.7,0.9-3.4-0.4c-0.5-0.8-0.2-2.2,0-3.3c0.1-0.6,0.9-1,1.4-1.5c8.4-7.9,16.8-15.8,25.1-23.7c2.2-2.1,2.9-2.1,5.3-0.2c5.9,4.7,11.8,9.4,17.6,14.1C86.7,96,87.4,96.5,88.1,97.1z M203.7,139.8c-6.4-10-12.9-19.9-19.4-30c10.1-7.6,20.1-15.1,30.1-22.5C224.6,102.4,221.5,127.4,203.7,139.8z M177.3,70.3c0,7.5,0,14.7,0,22c0,4.6-0.1,9.2,0,13.8c0,1.2,0.4,2.4,1,3.4c5.7,9,11.5,17.9,17.3,26.9c0.7,1.1,1.4,2.2,2.1,3.3c-10.3,6.5-26.9,7.3-39.8-2.1c-13.1-9.5-18.7-26.2-13.8-41.5C148.8,81.4,162.7,70.5,177.3,70.3z"/></g></g>
</svg>