<?xml version="1.0" encoding="utf-8"?>
<!-- Svg Vector Icons : http://www.onlinewebfonts.com/icon -->
<!DOCTYPE svg PUBLIC "-//W3C//DTD SVG 1.1//EN" "http://www.w3.org/Graphics/SVG/1.1/DTD/svg11.dtd">
<svg version="1.1" xmlns="http://www.w3.org/2000/svg" xmlns:xlink="http://www.w3.org/1999/xlink" x="0px" y="0px" viewBox="0 0 256 256" enable-background="new 0 0 256 256" xml:space="preserve">
<metadata> Svg Vector Icons : http://www.onlinewebfonts.com/icon </metadata>
<g><g><path fill="#000000" d="M245.6,102.1c-1-3.3-3.7-5.8-7.1-6.5L165.6,81l-29-65.4c-1.5-3.4-4.9-5.5-8.5-5.5c-3.7,0-7,2.2-8.5,5.6L90.4,81L17.5,95.6c-3.4,0.7-6.1,3.2-7.1,6.5c-1,3.3-0.1,6.8,2.3,9.3l50.8,50.7l-14.2,72.7c-0.7,3.5,0.2,7,2.9,9.2c1.6,1.3,3.7,2,5.9,2c1.3,0,2.6-0.3,3.8-0.8l66.1-29.3l66.1,29.3c1.1,0.5,2.4,0.8,3.7,0.8c2.1,0,4.2-0.7,5.8-2c2.8-2.2,3.7-5.7,3-9.2l-14.2-72.7l50.8-50.7C245.7,108.9,246.6,105.3,245.6,102.1z M176.8,146.4c-5.2,5.2-7.5,12.7-6.1,19.9l9.5,48.5L137,195.6c-2.9-1.3-5.9-1.9-9-1.9s-6.1,0.6-9,1.9l-43.3,19.2l9.5-48.5c1.4-7.2-0.9-14.7-6.1-19.9l-34-33.9l49.5-9.9c7-1.4,13-6.1,15.9-12.7L128,50.8l17.4,39.2c2.9,6.6,8.8,11.3,15.9,12.7l49.5,9.9L176.8,146.4z"/></g></g>
</svg>