<?xml version="1.0" encoding="utf-8"?>
<!-- Svg Vector Icons : http://www.onlinewebfonts.com/icon -->
<!DOCTYPE svg PUBLIC "-//W3C//DTD SVG 1.1//EN" "http://www.w3.org/Graphics/SVG/1.1/DTD/svg11.dtd">
<svg version="1.1" xmlns="http://www.w3.org/2000/svg" xmlns:xlink="http://www.w3.org/1999/xlink" x="0px" y="0px" viewBox="0 0 256 256" enable-background="new 0 0 256 256" xml:space="preserve">
<metadata> Svg Vector Icons : http://www.onlinewebfonts.com/icon </metadata>
<g><g><path fill="#FFFFFF" d="M128,6.8C62.8,6.8,10,61.1,10,128c0,21.2,5.3,41.1,14.6,58.4l15.8-16.3c-5.9-12.8-9.3-27.2-9.3-42.3c0-54.9,43.3-99.3,96.7-99.3c53.4,0,96.7,44.5,96.7,99.3c0,54.9-43.3,99.3-96.7,99.3c-21.4,0-41.1-7.2-57.1-19.3l-15.2,15.6c20,16.1,45.1,25.7,72.5,25.7c65.2,0,118-54.3,118-121.2C246,61.1,193.2,6.8,128,6.8z"/><path fill="#FFFFFF" d="M24.1,183.1l-0.1-1c0-6.1,4.8-11,10.7-11c5.9,0,10.7,4.9,10.7,11l0.1,1c0,6.1-4.8,11-10.7,11C28.9,194.2,24.1,189.2,24.1,183.1z"/><path fill="#FFFFFF" d="M52.5,216.5l-0.1-1c0-6.1,4.8-11,10.7-11c5.9,0,10.7,4.9,10.7,11l0.1,1c0,6.1-4.8,11-10.7,11C57.3,227.6,52.5,222.6,52.5,216.5z"/><path fill="#FFFFFF" d="M192.6,117.1l-53.9-0.1l0.1-55c0-6.1-4.8-11-10.7-11c-5.9,0-10.7,4.9-10.7,11l-0.1,64.4c-0.1,0.5-0.2,1.1-0.2,1.6c0,1.5,0.3,3,0.9,4.3c1.5,4.2,5.4,7.2,10,7.2c1.1,0,2.1-0.2,3-0.5l61.6,0.1c5.9,0,10.7-4.9,10.7-11C203.4,122,198.6,117.1,192.6,117.1z"/></g></g>
</svg>