<?xml version="1.0" encoding="utf-8"?>
<!-- Svg Vector Icons : http://www.onlinewebfonts.com/icon -->
<!DOCTYPE svg PUBLIC "-//W3C//DTD SVG 1.1//EN" "http://www.w3.org/Graphics/SVG/1.1/DTD/svg11.dtd">
<svg version="1.1" xmlns="http://www.w3.org/2000/svg" xmlns:xlink="http://www.w3.org/1999/xlink" x="0px" y="0px" viewBox="0 0 256 256" enable-background="new 0 0 256 256" xml:space="preserve">
<metadata> Svg Vector Icons : http://www.onlinewebfonts.com/icon </metadata>
<g><g><path fill="#000000" d="M195.4,111.1c-12.4,0-23.3,6.8-29.2,16.9h-5.1c-22.4,0-42.1-9.4-58.8-28C91.7,88,84.8,74.2,82.5,69.3c7.2-6.2,11.8-15.4,11.8-25.6C94.3,25.1,79.2,10,60.6,10C42,10,26.9,25.1,26.9,43.7c0,12.4,6.8,23.3,16.9,29.2v110.2c-10.1,5.8-16.9,16.7-16.9,29.2c0,18.6,15.1,33.7,33.7,33.7c18.6,0,33.7-15.1,33.7-33.7c0-12.4-6.8-23.3-16.9-29.2v-60.5c22.9,25.6,51.9,39.1,83.7,39.1h5.1c5.8,10.1,16.7,16.9,29.2,16.9c18.6,0,33.7-15.1,33.7-33.7C229.1,126.3,214,111.1,195.4,111.1z M60.6,26.9c9.3,0,16.9,7.5,16.9,16.9c0,9.3-7.5,16.9-16.9,16.9c-9.3,0-16.9-7.5-16.9-16.9C43.7,34.4,51.3,26.9,60.6,26.9z M60.6,229.1c-9.3,0-16.9-7.5-16.9-16.9c0-9.3,7.5-16.9,16.9-16.9c9.3,0,16.9,7.5,16.9,16.9C77.4,221.6,69.9,229.1,60.6,229.1z M195.4,161.7c-9.3,0-16.9-7.5-16.9-16.9c0-9.3,7.5-16.9,16.9-16.9c9.3,0,16.9,7.5,16.9,16.9C212.3,154.2,204.7,161.7,195.4,161.7z"/></g></g>
</svg>