<?xml version="1.0" encoding="utf-8"?>
<!-- Svg Vector Icons : http://www.onlinewebfonts.com/icon -->
<!DOCTYPE svg PUBLIC "-//W3C//DTD SVG 1.1//EN" "http://www.w3.org/Graphics/SVG/1.1/DTD/svg11.dtd">
<svg version="1.1" xmlns="http://www.w3.org/2000/svg" xmlns:xlink="http://www.w3.org/1999/xlink" x="0px" y="0px" viewBox="0 0 256 256" enable-background="new 0 0 256 256" xml:space="preserve">
<metadata> Svg Vector Icons : http://www.onlinewebfonts.com/icon </metadata>
<g><g><path fill="#FFFFFF" d="M223.3,43.7h-94.9h-0.7H32.7C20,43.7,10,53.9,10,66.9v122.2c0,13,10,23.2,22.7,23.2h94.9h0.7h94.9c12.8,0,22.7-10.2,22.7-23.2V66.9C246,53.9,236,43.7,223.3,43.7z M32.7,56.3h94.9h0.7h94.9h0l-89.5,89.5c-1.5,1.5-3.7,2.3-5.8,2.4c-2.1,0-4.2-0.8-5.8-2.4L32.7,56.3L32.7,56.3z M25.3,196.3c-1.7-1.9-2.7-4.4-2.7-7.2V66.9c0-2.5,0.8-4.7,2.2-6.5L93,128.5L25.3,196.3z M128.4,199.6h-0.7H33.9L99,134.5l17.3,17.3c3.1,3.1,7.1,4.7,11.4,4.9v0l0.2,0l0.2,0l0.2,0l0.2,0v0c4.3-0.1,8.3-1.8,11.4-4.9l17.3-17.3l65.1,65.1H128.4z M233.4,189.1c0,2.8-1,5.3-2.7,7.2L163,128.6l68.2-68.2c1.3,1.8,2.2,4,2.2,6.5V189.1L233.4,189.1z"/></g></g>
</svg>