<?xml version="1.0" encoding="utf-8"?>
<!-- Svg Vector Icons : http://www.onlinewebfonts.com/icon -->
<!DOCTYPE svg PUBLIC "-//W3C//DTD SVG 1.1//EN" "http://www.w3.org/Graphics/SVG/1.1/DTD/svg11.dtd">
<svg version="1.1" xmlns="http://www.w3.org/2000/svg" xmlns:xlink="http://www.w3.org/1999/xlink" x="0px" y="0px" viewBox="0 0 256 256" enable-background="new 0 0 256 256" xml:space="preserve">
<metadata> Svg Vector Icons : http://www.onlinewebfonts.com/icon </metadata>
<g><g><path fill="#000000" d="M128,44.2C62.8,44.2,10,128,10,128s52.8,83.8,118,83.8c67.1,1.8,118-83.8,118-83.8S193.2,44.2,128,44.2L128,44.2z M127.8,194.9c-55.6,0-100.6-67.1-100.6-67.1s45.1-67.1,100.6-67.1c55.6,0,100.6,67.1,100.6,67.1S183.4,194.9,127.8,194.9L127.8,194.9z M127.3,85.8c-23.3,0-42.1,18.9-42.1,42.1c0,23.3,18.9,42.1,42.1,42.1c23.3,0,42.1-18.9,42.1-42.1C169.4,104.7,150.6,85.8,127.3,85.8L127.3,85.8z M127.3,153.3c-14,0-25.3-11.3-25.3-25.3c0-14,11.3-25.3,25.3-25.3c14,0,25.3,11.3,25.3,25.3C152.6,142,141.3,153.3,127.3,153.3L127.3,153.3z"/></g></g>
</svg>