<?xml version="1.0" encoding="utf-8"?>
<!-- Svg Vector Icons : http://www.onlinewebfonts.com/icon -->
<!DOCTYPE svg PUBLIC "-//W3C//DTD SVG 1.1//EN" "http://www.w3.org/Graphics/SVG/1.1/DTD/svg11.dtd">
<svg version="1.1" xmlns="http://www.w3.org/2000/svg" xmlns:xlink="http://www.w3.org/1999/xlink" x="0px" y="0px" viewBox="0 0 256 256" enable-background="new 0 0 256 256" xml:space="preserve">
<metadata> Svg Vector Icons : http://www.onlinewebfonts.com/icon </metadata>
<g><g><path fill="#FFFFFF" d="M128,79c-46,0-83.5,37.5-83.5,83.5c0,46,37.5,83.5,83.5,83.5c46,0,83.5-37.5,83.5-83.5C211.5,116.4,174,79,128,79z M128,227.4c-35.8,0-64.9-29.1-64.9-64.9c0-35.8,29.1-64.9,64.9-64.9c35.8,0,64.9,29.1,64.9,64.9C192.9,198.3,163.8,227.4,128,227.4z"/><path fill="#FFFFFF" d="M118.1,134.6h19.8v55.7h-19.8V134.6L118.1,134.6z"/><path fill="#FFFFFF" d="M97.7,53.9c0-14,11.4-25.4,25.3-25.4h9.9c14,0,25.3,11.4,25.3,25.4v21.7h18.6V53.9c0-24.2-19.7-43.9-43.9-43.9H123c-24.2,0-43.9,19.7-43.9,43.9v21.7h18.6L97.7,53.9L97.7,53.9z"/></g></g>
</svg>