<?xml version="1.0" encoding="utf-8"?>
<!-- Svg Vector Icons : http://www.onlinewebfonts.com/icon -->
<!DOCTYPE svg PUBLIC "-//W3C//DTD SVG 1.1//EN" "http://www.w3.org/Graphics/SVG/1.1/DTD/svg11.dtd">
<svg version="1.1" xmlns="http://www.w3.org/2000/svg" xmlns:xlink="http://www.w3.org/1999/xlink" x="0px" y="0px" viewBox="0 0 256 256" enable-background="new 0 0 256 256" xml:space="preserve">
<metadata> Svg Vector Icons : http://www.onlinewebfonts.com/icon </metadata>
<g><g><g><path fill="#000000" d="M39.3,21c-0.7,0.3-1.9,1.1-2.5,1.7c-2.6,2.4-2.7,3.1-2.7,17.2V53h13.4h13.4l-0.2-13.6c-0.2-12.8-0.2-13.7-1.3-15.1c-2.5-3.4-3.3-3.6-11.4-3.7C43.9,20.5,40.1,20.7,39.3,21z"/><path fill="#000000" d="M119.1,21.6c-1.4,0.7-2.8,1.9-3.4,3c-1,1.8-1,2.7-1.2,63.3l-0.1,61.5H128h13.6L141.5,88c-0.2-60.6-0.2-61.5-1.2-63.3c-0.6-1.1-2-2.3-3.4-3c-2-1-3.1-1.2-8.9-1.2S121.1,20.6,119.1,21.6z"/><path fill="#000000" d="M200.1,21.2c-1.9,0.9-3.7,2.7-4.4,4.7c-0.4,0.9-0.6,6.5-0.6,14.3V53h13.4h13.4V39.7c0-12.9-0.1-13.3-1.2-15c-2.5-3.6-3.4-3.9-11.6-4C203.7,20.5,201.3,20.7,200.1,21.2z"/><path fill="#000000" d="M14.2,59.2c-1,0.5-2.4,1.7-3,2.7c-1.2,1.7-1.2,1.8-1,18c0.2,18.4,0.1,18,4.4,20.2c2.1,1,2.9,1,33.7,0.9c31.1-0.2,31.5-0.2,33-1.3c0.8-0.6,2-1.9,2.7-2.8c1.2-1.7,1.2-2,1.2-17.3c0-15.1-0.1-15.6-1.2-17.6c-2.4-4.1-0.8-4-36.3-4C17.8,58.2,15.9,58.3,14.2,59.2z"/><path fill="#000000" d="M175.3,59.1c-0.9,0.5-2.3,1.6-2.9,2.5c-1.1,1.6-1.2,2-1.3,17.6c-0.2,16-0.2,16.1,1,17.8c0.7,0.9,1.9,2.3,2.7,2.8c1.5,1.1,1.9,1.1,33,1.3c30.8,0.1,31.6,0.1,33.7-0.9c4.3-2.2,4.2-1.8,4.4-20.2c0.2-16.3,0.2-16.3-1-18c-0.7-1-2-2.2-3-2.7c-1.7-0.9-3.7-1-33.3-1C180.6,58.2,176.8,58.3,175.3,59.1z"/><path fill="#000000" d="M34.1,168.1v61.5l1.2,1.7c2.5,3.7,3.2,3.9,12.2,3.9c8.8,0,9.5-0.2,12-3.6c1.1-1.4,1.1-1.7,1.3-63.3l0.1-61.8H47.5H34.1V168.1z"/><path fill="#000000" d="M195.3,168.3c0.2,61.6,0.2,61.9,1.3,63.3c2.5,3.4,3.2,3.6,12,3.6c9,0,9.7-0.3,12.2-3.9l1.2-1.7v-61.5v-61.6h-13.4h-13.4L195.3,168.3z"/><path fill="#000000" d="M96.3,155.1c-2,0.5-4.4,2.8-5.2,5c-0.7,1.9-0.8,4.3-0.7,17.3c0.2,14.3,0.2,15.1,1.3,16.5c0.6,0.8,1.9,2,2.8,2.6l1.7,1.2H128h31.8l1.7-1.2c0.9-0.6,2.3-1.8,2.8-2.6c1.1-1.4,1.1-2.2,1.3-16.5c0.2-17-0.1-18.4-3.5-21l-1.8-1.4l-31.5-0.1C111.5,154.9,96.8,155,96.3,155.1z"/><path fill="#000000" d="M114.6,203.8c-0.2,0.4-0.2,6.3-0.1,13.2c0.2,14.4,0.4,15.3,4.6,17.4c2,1.1,3.1,1.2,8.9,1.2c5.8,0,6.9-0.2,8.9-1.2c4.3-2.2,4.5-2.8,4.5-17.9v-13.1l-13.3-0.2C117.1,203,114.8,203.1,114.6,203.8z"/></g></g></g>
</svg>