<?xml version="1.0" encoding="utf-8"?>
<!-- Svg Vector Icons : http://www.onlinewebfonts.com/icon -->
<!DOCTYPE svg PUBLIC "-//W3C//DTD SVG 1.1//EN" "http://www.w3.org/Graphics/SVG/1.1/DTD/svg11.dtd">
<svg version="1.1" xmlns="http://www.w3.org/2000/svg" xmlns:xlink="http://www.w3.org/1999/xlink" x="0px" y="0px" viewBox="0 0 256 256" enable-background="new 0 0 256 256" xml:space="preserve">
<metadata> Svg Vector Icons : http://www.onlinewebfonts.com/icon </metadata>
<g><g><g><path fill="#000000" d="M119.7,10.1C92.1,12.6,67.2,25.4,49.6,46c-14,16.4-23.1,38.1-24.4,58c-0.2,2.5-0.5,4.7-0.6,4.9c-0.1,0.2-1.1,0.8-2.1,1.3c-4.6,2.4-9.3,9.3-11.4,16.9c-0.9,3.3-1,5-1,11.1c0,6.4,0.2,7.6,1.3,11.3c2.3,7.7,6.4,13.4,11.5,16.2c2.4,1.3,2.6,1.4,9.8,1.5l7.4,0.2l1.1,2c2.4,4.6,7.7,7.8,12.9,7.8c5.6,0,11.2-3.6,13.4-8.6l1.1-2.4v-28.4v-28.4l-1.2-2.4c-1.8-3.5-3.2-4.9-6.5-6.7c-2.6-1.4-3.3-1.5-6.8-1.6c-3.4,0-4.3,0.2-6.3,1.3c-2.9,1.5-5.4,3.8-6.6,6.3l-0.9,1.8h-2.8h-2.8l0.3-3.6c1.6-18,9.1-36.1,20.6-50.3l2.8-3.5l6.1,6c3.3,3.3,6.5,6.2,7.1,6.5c2.2,1.1,4,0.6,7.1-1.8c9.6-7.8,20.7-12.9,33.5-15.7c5.9-1.2,18.9-1.8,25.4-1c15,1.8,28.5,7.5,39.9,16.6c3.1,2.5,4.9,3,7.1,1.8c0.6-0.3,3.7-3.2,7.1-6.5l6.1-6l2.8,3.4c12,14.9,19,31.8,20.7,50.6l0.3,3.4h-2.9h-2.8l-0.9-1.8c-1.2-2.5-3.7-4.8-6.6-6.3c-2.1-1.1-3-1.3-6.3-1.3c-3.2,0-4.3,0.2-6.2,1.2c-3,1.4-5.7,4.2-7.2,7.2l-1.2,2.3v28.2c0,31.8-0.1,30.7,3.6,34.8c2.4,2.6,5,4.1,8.5,4.7c4.8,0.9,9.8-0.8,13.3-4.7c0.9-1,2-2.6,2.4-3.5c0.8-1.6,0.8-1.6,3.6-1.5l2.8,0.1v9.7c0,6.3-0.2,10.8-0.6,12.9c-3.4,17-15.6,30.3-32.2,34.9c-3.2,0.9-5,1.1-15.4,1.2l-11.8,0.2l-0.9-1.9c-1.1-2.4-4.3-5.3-7.1-6.6c-2.1-1-2.7-1-20.6-1h-18.5l-2.6,1.3c-2.9,1.4-5.3,3.8-6.9,6.9c-0.9,1.7-1.1,2.7-1.1,6.4s0.2,4.7,1.1,6.4c1.6,3,4.1,5.5,6.9,6.9l2.6,1.3h18.5c18,0,18.5,0,20.6-1c2.8-1.2,6-4.2,7.1-6.5l0.9-1.8l11.4-0.3c14.2-0.3,19.1-1.2,27.5-5.2c11.5-5.4,21.8-16,26.8-27.8c3.4-7.8,4.4-14,4.4-27.2v-9.7l2.1-1.1c4.8-2.5,9.3-9.3,11.4-16.9c1.3-5,1.4-16,0.2-20.8c-2-7.8-6.9-15.2-11.6-17.6c-2.4-1.2-2.5-1.4-2.5-4c0-6.3-2.8-19.6-5.8-27.9c-12.8-35.6-43.4-60.9-80.8-67.3C139,10.3,124.7,9.6,119.7,10.1z M135.2,20c13.6,1.1,27.3,5.3,38.8,11.9c4.2,2.4,11.5,7.5,14.5,10.2l2,1.8l-4.3,4.3l-4.3,4.2L177,49c-14.5-9.6-30.6-14.3-49-14.3c-18.2,0-34.6,4.8-48.5,14c-2.4,1.6-4.6,3-4.9,3.2c-0.3,0.2-2.3-1.5-4.8-4l-4.3-4.3l3.5-2.9c14.5-11.9,32.8-19.3,51.3-20.8C127.1,19.5,128.6,19.5,135.2,20z M56.1,108.9c3,1.4,3,1,3,28.8c0,26.9,0,27.2-2.4,28.9c-1.4,1-4.1,1-5.4,0c-2.3-1.7-2.4-2-2.4-28.9c0-27.6,0-27.3,2.9-28.8C53.7,108,54.3,108,56.1,108.9z M204,108.9c3,1.4,3,1,3,28.8c0,26.9,0,27.2-2.4,28.9c-1.4,1-4.1,1-5.5,0c-2.3-1.7-2.4-2-2.4-28.9c0-27.6,0-27.3,2.9-28.8C201.6,108,202.1,108,204,108.9z M39.3,138v19.6H34c-5.8,0-6.9-0.3-9.1-2.6c-6.5-6.9-7.1-24.3-1.1-32.7c2.5-3.6,3.3-3.9,9.8-3.9h5.6V138z M229.3,119.2c7.1,4.6,9.3,21.9,4.2,32.1c-2.7,5.4-4.4,6.3-11.5,6.3h-5.3V138v-19.6h5.7C227.1,118.4,228.2,118.5,229.3,119.2z M151.1,228.2c1.6,1.8,1.8,4.3,0.6,6.1c-1.6,2.2-2.8,2.4-18.9,2.4c-16.6,0-17.6-0.1-18.9-2.7c-0.9-1.8-0.9-3,0-4.7c1.3-2.6,2-2.7,19.7-2.6l16.1,0.1L151.1,228.2z"/></g></g></g>
</svg>