<?xml version="1.0" encoding="utf-8"?>
<!-- Svg Vector Icons : http://www.onlinewebfonts.com/icon -->
<!DOCTYPE svg PUBLIC "-//W3C//DTD SVG 1.1//EN" "http://www.w3.org/Graphics/SVG/1.1/DTD/svg11.dtd">
<svg version="1.1" xmlns="http://www.w3.org/2000/svg" xmlns:xlink="http://www.w3.org/1999/xlink" x="0px" y="0px" viewBox="0 0 256 256" enable-background="new 0 0 256 256" xml:space="preserve">
<metadata> Svg Vector Icons : http://www.onlinewebfonts.com/icon </metadata>
<g><g><path fill="#FFFFFF" d="M245.9,119.8c0-0.4-0.2-0.7-0.2-1.1c-0.3-1.9-1.3-3.5-2.7-4.6L133.2,21.2c-0.3-0.2-0.6-0.3-0.8-0.5c-0.4-0.3-0.9-0.6-1.4-0.7c-0.5-0.2-0.9-0.3-1.4-0.4c-0.5-0.1-1-0.2-1.5-0.2c-0.5,0-1,0.1-1.5,0.2c-0.5,0.1-1,0.2-1.4,0.4c-0.5,0.2-0.9,0.4-1.3,0.7c-0.3,0.2-0.6,0.3-0.9,0.5L13.7,113.6c-2.2,1.4-3.7,3.7-3.7,6.4c0,4.3,3.5,7.8,7.9,7.8H43v100.9c0,4.3,3.5,7.8,7.9,7.8H109v-56.7h42.7v56.7h53.4c4.3,0,7.9-3.5,7.9-7.8V127.8h24.3c0.3,0,0.6,0.1,0.9,0.1c2.2,0,4.4-0.9,6-2.7c0.5-0.6,0.7-1.2,1-1.8c0.1-0.2,0.2-0.3,0.3-0.5c0.3-0.7,0.4-1.4,0.4-2.1c0-0.3,0.2-0.5,0.2-0.8C246,120,245.9,119.9,245.9,119.8L245.9,119.8L245.9,119.8z M198.7,113.6v108.7h-33.1v-48.7c0-4.3-3.5-7.8-7.8-7.8h-55c-4.3,0-7.9,3.5-7.9,7.8v48.7H57.1V113.6H38.3l89.8-76.3l89.7,76.3H198.7L198.7,113.6z"/></g></g>
</svg>