<?xml version="1.0" encoding="utf-8"?>
<!-- Svg Vector Icons : http://www.onlinewebfonts.com/icon -->
<!DOCTYPE svg PUBLIC "-//W3C//DTD SVG 1.1//EN" "http://www.w3.org/Graphics/SVG/1.1/DTD/svg11.dtd">
<svg version="1.1" xmlns="http://www.w3.org/2000/svg" xmlns:xlink="http://www.w3.org/1999/xlink" x="0px" y="0px" viewBox="0 0 256 256" enable-background="new 0 0 256 256" xml:space="preserve">
<metadata> Svg Vector Icons : http://www.onlinewebfonts.com/icon </metadata>
<g><g><path fill="#FFFFFF" d="M200.1,110.6l-78.6,94.3l-57.3-49.1l9.6-11.2l45.9,39.4l69-82.8L200.1,110.6z M39.5,190.4c0,22.5,16.8,40.8,37.4,40.8h102.3c20.6,0,37.4-18.3,37.4-40.8V87.7c0-19.9-13.2-36.6-30.5-40.1c0.9,6.9,1,12.4,1,14h7.4v14.8H61.6V61.6H69c0-1.6,0.1-7.2,1-14c-17.3,3.5-30.5,20.1-30.5,40.1V190.4z M231.3,87.7v102.8c0,30.6-23.4,55.6-52.1,55.6H76.9c-28.8,0-52.1-24.9-52.1-55.6V87.7c0-29.5,21.6-53.5,48.8-55.4C77.5,20.6,84.8,10,98.5,10h59c13.7,0,21,10.6,25,22.3C209.6,34.2,231.3,58.2,231.3,87.7z M172.3,61.6c0-12-3.7-36.9-14.7-36.9h-59c-11.1,0-14.7,24.8-14.8,36.9H172.3z"/></g></g>
</svg>